<svg width="27" height="32" viewBox="0 0 27 32" fill="none" xmlns="http://www.w3.org/2000/svg">
<path d="M7.24073 14.8465C8.81578 18.4945 11.3533 21.4723 14.4487 23.3414L16.8551 20.5055C17.1504 20.1574 17.5879 20.0414 17.9707 20.1961C19.1958 20.673 20.5192 20.9309 21.8755 20.9309C22.4771 20.9309 22.9693 21.5109 22.9693 22.2199V26.7187C22.9693 27.4277 22.4771 28.0078 21.8755 28.0078C11.6049 28.0078 3.28125 18.198 3.28125 6.09375C3.28125 5.38477 3.77345 4.80469 4.37503 4.80469H8.20326C8.80484 4.80469 9.29704 5.38477 9.29704 6.09375C9.29704 7.70508 9.5158 9.25195 9.9205 10.6957C10.0408 11.1469 9.95331 11.6496 9.64705 12.0105L7.24073 14.8465Z" fill="#02F4BF"/>
</svg>
